# xmcd
#
# Track frame offsets: 
#        187
#        19915
#        37512
#        55070
#        74142
#        92010
#        107487
#        124727
#        138465
#        152815
#        169517
#        187045
#        210157
#
# Disc length: 3064 seconds
#
# Revision: 2
# Processed by: cddbd v1.5.2PL0 Copyright (c) Steve Scherf et al.
# Submitted via: ExactAudioCopy v1.0b3
#
DISCID=a80bf60d
DTITLE=Trisha Yearwood - The Song Remembers When [MVCM-451]
DYEAR=1994
DGENRE=Country
TTITLE0=Walkaway Joe (Remix)
TTITLE1=The Song Remembers When
TTITLE2=Better Your Heart Than Mine
TTITLE3=I Don't Fall In Love So Easy
TTITLE4=Hard Promises To Keep
TTITLE5=Mr. Radio
TTITLE6=The Nightingale
TTITLE7=If I Ain't Got You
TTITLE8=One In A Row
TTITLE9=Here Comes Temptation
TTITLE10=Lying To The Moon
TTITLE11=New Kid In Town
TTITLE12=Walkaway Joe
EXTD=YEAR: 1994 ID3G: 2
EXTT0=
EXTT1=
EXTT2=
EXTT3=
EXTT4=
EXTT5=
EXTT6=
EXTT7=
EXTT8=
EXTT9=
EXTT10=
EXTT11=
EXTT12=
PLAYORDER=
